<?xml version="1.0" encoding="UTF-8" standalone="no"?>
<svg width="90px" height="50px" viewBox="0 0 90 50" version="1.1" xmlns="http://www.w3.org/2000/svg" xmlns:xlink="http://www.w3.org/1999/xlink">
    <!-- Generator: Sketch 41.2 (35397) - http://www.bohemiancoding.com/sketch -->
    <title>email</title>
    <desc>Created with Sketch.</desc>
    <defs></defs>
    <g id="Desktop" stroke="none" stroke-width="1" fill="none" fill-rule="evenodd">
        <g id="simple-cards-copy" transform="translate(-708.000000, -429.000000)">
            <g id="email" transform="translate(596.000000, 409.000000)">
                <g transform="translate(112.000000, 20.000000)">
                    <path d="M88.224,1.401 C87.958,1.235 87.651,1.145 87.338,1.145 L2.663,1.145 C2.35,1.145 2.044,1.235 1.777,1.4 L45.003,31.41 L88.224,1.401 Z" id="Shape"></path>
                    <path d="M1.13,2.1 C1.024,2.305 0.943,2.56 0.943,2.864 L0.943,47.136 C0.943,47.409 1.013,47.68 1.144,47.924 L34.136,25.015 L1.13,2.1 Z" id="Shape"></path>
                    <path d="M55.041,25.59 L45.272,32.373 C45.191,32.429 45.097,32.457 45.003,32.457 C44.909,32.457 44.815,32.429 44.734,32.373 L34.964,25.59 L1.802,48.615 C2.062,48.77 2.358,48.855 2.662,48.855 L87.337,48.855 C87.647,48.855 87.942,48.772 88.202,48.615 L74.753,39.277 L55.041,25.59 Z" id="Shape"></path>
                    <path d="M55.868,25.015 L88.86,47.923 C88.99,47.681 89.057,47.414 89.057,47.136 L89.057,2.864 C89.057,2.596 88.993,2.337 88.871,2.1 L55.868,25.015 Z" id="Shape"></path>
                    <g id="Group">
                        <path d="M88.224,1.401 C87.958,1.235 87.651,1.145 87.338,1.145 L2.663,1.145 C2.35,1.145 2.044,1.235 1.777,1.4 L45.003,31.41 L88.224,1.401 Z" id="Shape"></path>
                        <path d="M1.13,2.1 C1.024,2.305 0.943,2.56 0.943,2.864 L0.943,47.136 C0.943,47.409 1.013,47.68 1.144,47.924 L34.136,25.015 L1.13,2.1 Z" id="Shape"></path>
                        <path d="M55.041,25.589 L45.272,32.372 C45.191,32.428 45.097,32.456 45.003,32.456 C44.909,32.456 44.815,32.428 44.734,32.372 L34.964,25.589 L1.802,48.615 C2.062,48.77 2.358,48.855 2.662,48.855 L87.337,48.855 C87.647,48.855 87.942,48.772 88.202,48.615 L74.753,39.277 L55.041,25.589 Z" id="Shape"></path>
                        <path d="M55.868,25.015 L88.86,47.923 C88.99,47.681 89.057,47.414 89.057,47.136 L89.057,2.864 C89.057,2.596 88.993,2.337 88.871,2.1 L55.868,25.015 Z" id="Shape"></path>
                        <path d="M89.349,1.138 C89.348,1.137 89.348,1.136 89.347,1.135 C88.835,0.542 88.103,0.201 87.337,0.201 L2.663,0.201 C1.9,0.201 1.168,0.54 0.657,1.131 C0.656,1.132 0.654,1.133 0.653,1.134 C0.232,1.624 0,2.238 0,2.864 L0,47.136 C0,47.773 0.239,48.393 0.673,48.884 C0.674,48.885 0.674,48.887 0.676,48.889 C1.183,49.467 1.908,49.799 2.664,49.799 L87.339,49.799 C88.094,49.799 88.819,49.468 89.327,48.89 L89.327,48.89 L89.327,48.89 C89.327,48.89 89.327,48.89 89.328,48.889 L89.329,48.888 C89.761,48.397 90,47.776 90,47.136 L90,2.864 C90,2.237 89.769,1.625 89.349,1.138 Z M2.663,1.145 L87.338,1.145 C87.651,1.145 87.958,1.235 88.224,1.401 L45.002,31.411 L1.777,1.4 C2.044,1.235 2.349,1.145 2.663,1.145 Z M0.943,47.136 L0.943,2.864 C0.943,2.56 1.024,2.305 1.13,2.1 L34.136,25.015 L1.144,47.924 C1.013,47.679 0.943,47.409 0.943,47.136 Z M87.338,48.855 L2.663,48.855 C2.359,48.855 2.062,48.77 1.803,48.615 L34.963,25.589 L44.733,32.372 C44.814,32.428 44.908,32.456 45.002,32.456 C45.096,32.456 45.19,32.428 45.271,32.372 L55.04,25.589 L74.753,39.277 L88.202,48.615 C87.943,48.772 87.648,48.855 87.338,48.855 Z M89.057,47.136 C89.057,47.414 88.99,47.681 88.86,47.923 L55.868,25.015 L88.871,2.1 C88.994,2.337 89.057,2.595 89.057,2.864 L89.057,47.136 Z" id="Shape" fill="#000000"></path>
                    </g>
                </g>
            </g>
        </g>
    </g>
</svg>