<?xml version="1.0" encoding="UTF-8" standalone="no"?>
<svg width="71px" height="70px" viewBox="0 0 71 70" version="1.1" xmlns="http://www.w3.org/2000/svg" xmlns:xlink="http://www.w3.org/1999/xlink">
    <!-- Generator: Sketch 41.2 (35397) - http://www.bohemiancoding.com/sketch -->
    <title>linkedin</title>
    <desc>Created with Sketch.</desc>
    <defs></defs>
    <g id="Desktop" stroke="none" stroke-width="1" fill="none" fill-rule="evenodd">
        <g id="simple-cards-copy" transform="translate(-596.000000, -409.000000)" fill="#000000">
            <g id="email" transform="translate(596.000000, 409.000000)">
                <g id="linkedin">
                    <path d="M9.629,0.01 C4.82,0.01 0.908,3.92 0.908,8.727 C0.908,13.536 4.82,17.448 9.629,17.448 C14.435,17.448 18.344,13.536 18.344,8.727 C18.344,3.92 14.435,0.01 9.629,0.01 Z M9.629,16.447 C5.372,16.447 1.908,12.983 1.908,8.726 C1.908,4.471 5.371,1.009 9.629,1.009 C13.883,1.009 17.344,4.471 17.344,8.726 C17.344,12.983 13.883,16.447 9.629,16.447 Z" id="Shape"></path>
                    <path d="M16.714,22.683 L2.537,22.683 C2.261,22.683 2.037,22.907 2.037,23.183 L2.037,68.794 C2.037,69.07 2.261,69.294 2.537,69.294 L16.714,69.294 C16.99,69.294 17.214,69.07 17.214,68.794 L17.214,23.183 C17.214,22.906 16.99,22.683 16.714,22.683 Z M16.214,68.294 L3.037,68.294 L3.037,23.683 L16.214,23.683 L16.214,68.294 Z" id="Shape"></path>
                    <path d="M52.805,21.549 C46.383,21.549 41.928,24.772 39.701,27.954 L39.701,23.183 C39.701,22.907 39.477,22.683 39.201,22.683 L25.606,22.683 C25.33,22.683 25.106,22.907 25.106,23.183 L25.106,68.794 C25.106,69.07 25.33,69.294 25.606,69.294 L39.77,69.294 C40.046,69.294 40.27,69.07 40.27,68.794 L40.27,46.23 C40.27,40.687 41.222,35.02 48.278,35.02 C54.628,35.02 55.144,40.27 55.144,46.612 L55.144,68.794 C55.144,69.07 55.368,69.294 55.644,69.294 L69.81,69.294 C70.086,69.294 70.31,69.07 70.31,68.794 L70.31,43.775 C70.31,32.231 68.189,21.549 52.805,21.549 Z M69.31,68.294 L56.144,68.294 L56.144,46.612 C56.144,41.597 56.144,34.02 48.278,34.02 C40.294,34.02 39.27,40.545 39.27,46.23 L39.27,68.293 L26.106,68.293 L26.106,23.683 L38.702,23.683 L38.702,29.415 C38.702,29.691 38.926,29.915 39.202,29.915 L39.392,29.915 C39.578,29.915 39.747,29.812 39.834,29.648 C41.563,26.373 45.997,22.548 52.805,22.548 C66.503,22.548 69.31,31.033 69.31,43.775 L69.31,68.294 L69.31,68.294 Z" id="Shape"></path>
                </g>
            </g>
        </g>
    </g>
</svg>