<?xml version="1.0" encoding="UTF-8" standalone="no"?>
<svg width="457px" height="94px" viewBox="0 0 457 94" version="1.1" xmlns="http://www.w3.org/2000/svg" xmlns:xlink="http://www.w3.org/1999/xlink">
    <!-- Generator: Sketch 41.2 (35397) - http://www.bohemiancoding.com/sketch -->
    <title>daymaker.</title>
    <desc>Created with Sketch.</desc>
    <defs></defs>
    <g id="Desktop" stroke="none" stroke-width="1" fill="none" fill-rule="evenodd">
        <g id="daymaker-summary" transform="translate(-492.000000, -104.000000)" fill="#FFFFFF">
            <path d="M492,151.584972 C492,147.456104 492.602118,143.740178 493.806371,140.437083 C495.010624,137.133988 496.610537,134.347043 498.606157,132.076166 C500.601776,129.805288 502.889823,128.050545 505.470366,126.811885 C508.050909,125.573224 510.71743,124.953903 513.470009,124.953903 C516.360217,124.953903 518.803094,125.452801 520.798714,126.45061 C522.794334,127.44842 524.789924,128.807486 526.785544,130.527848 L526.372659,122.373373 L526.372659,104 L538.243097,104 L538.243097,176.874165 L528.437083,176.874165 L527.611313,171.403442 L527.198428,171.403442 C525.340438,173.261433 523.172814,174.844142 520.695493,176.151617 C518.218172,177.459092 515.603261,178.11282 512.850682,178.11282 C506.450936,178.11282 501.375944,175.790366 497.625555,171.145389 C493.875166,166.500412 492,159.980338 492,151.584972 Z M504.283323,151.481751 C504.283323,156.986909 505.263914,161.167326 507.225127,164.023126 C509.186339,166.878927 512.024894,168.306806 515.740875,168.306806 C519.525672,168.306806 523.069564,166.414436 526.372659,162.62964 L526.372659,138.991986 C524.583482,137.409253 522.845943,136.308238 521.159988,135.688908 C519.474034,135.069577 517.770901,134.759917 516.050539,134.759917 C512.747444,134.759917 509.9605,136.204999 507.689622,139.095207 C505.418744,141.985415 504.283323,146.114222 504.283323,151.481751 Z M551.145746,163.248967 C551.145746,157.812624 553.51981,153.615004 558.268009,150.655981 C563.016208,147.696959 570.585686,145.632556 580.976672,144.462709 C580.976672,143.155234 580.804639,141.899389 580.460566,140.695136 C580.116494,139.490882 579.58319,138.424274 578.860638,137.495279 C578.138086,136.566283 577.209104,135.843742 576.073665,135.327633 C574.938227,134.811525 573.510348,134.553474 571.789986,134.553474 C569.24385,134.553474 566.78377,135.035169 564.40967,135.998571 C562.035571,136.961974 559.747524,138.131802 557.54546,139.508092 L553.21017,131.56006 C556.031564,129.770883 559.179779,128.222581 562.65491,126.915106 C566.130041,125.607631 569.897577,124.953903 573.957631,124.953903 C580.357377,124.953903 585.105505,126.829069 588.202156,130.579458 C591.298808,134.329847 592.84711,139.748906 592.84711,146.836797 L592.84711,176.874165 L583.144317,176.874165 L582.215327,171.300221 L581.905663,171.300221 C579.634785,173.227026 577.209111,174.844142 574.628569,176.151617 C572.048026,177.459092 569.243878,178.11282 566.216041,178.11282 C561.7431,178.11282 558.113191,176.753754 555.326205,174.035583 C552.539218,171.317411 551.145746,167.721908 551.145746,163.248967 Z M562.70652,162.319977 C562.70652,164.590854 563.377451,166.242377 564.719334,167.274594 C566.061216,168.306811 567.798755,168.822912 569.932004,168.822912 C571.996438,168.822912 573.888808,168.341218 575.60917,167.377815 C577.329532,166.414413 579.118681,165.038144 580.976672,163.248967 L580.976672,151.894636 C577.535949,152.307523 574.645784,152.85803 572.306092,153.546175 C569.9664,154.23432 568.091233,155.008471 566.680536,155.868652 C565.26984,156.728833 564.254841,157.709424 563.635511,158.810456 C563.016181,159.911488 562.70652,161.081316 562.70652,162.319977 Z M606.265866,187.402728 C606.747567,187.540357 607.315278,187.695187 607.969015,187.867223 C608.622753,188.039259 609.259277,188.125276 609.878608,188.125276 C612.562372,188.125276 614.712792,187.316718 616.329932,185.699578 C617.947073,184.082438 619.168511,182.000831 619.994285,179.454695 L620.923276,176.254838 L601.001585,126.192557 L613.078465,126.192557 L621.852267,151.068866 C622.609226,153.270929 623.34897,155.593383 624.071522,158.036297 C624.794074,160.479211 625.533819,162.904885 626.290778,165.313391 L626.703663,165.313391 C627.322993,162.973699 627.959517,160.582432 628.613255,158.139518 C629.266992,155.696604 629.903517,153.339744 630.522847,151.068866 L638.161216,126.192557 L649.618769,126.192557 L631.245396,179.145032 C630.213178,182.03524 629.077757,184.615744 627.839096,186.886622 C626.600435,189.157499 625.172556,191.101479 623.555416,192.718619 C621.938276,194.335759 620.080313,195.574401 617.981472,196.434582 C615.88263,197.294763 613.456956,197.724847 610.704377,197.724847 C609.328088,197.724847 608.123852,197.638831 607.091635,197.466794 C606.059418,197.294758 605.061623,197.036708 604.098221,196.692635 L606.265866,187.402728 Z M658.39257,126.192557 L668.198584,126.192557 L669.024354,133.108378 L669.437239,133.108378 C671.570487,130.8375 673.892941,128.910724 676.404669,127.327991 C678.916398,125.745258 681.754952,124.953903 684.920418,124.953903 C688.6364,124.953903 691.612581,125.745258 693.849052,127.327991 C696.085522,128.910724 697.788655,131.147161 698.958501,134.037368 C701.367008,131.422418 703.878698,129.254795 706.493649,127.534433 C709.108599,125.814071 712.03317,124.953903 715.26745,124.953903 C720.634979,124.953903 724.591752,126.691443 727.137888,130.166574 C729.684024,133.641705 730.957072,138.613476 730.957072,145.082037 L730.957072,176.874165 L718.983413,176.874165 L718.983413,146.630355 C718.983413,142.432672 718.346889,139.473693 717.073821,137.753332 C715.800753,136.03297 713.856774,135.172802 711.241824,135.172802 C708.076358,135.172802 704.532465,137.271612 700.61004,141.469295 L700.61004,176.874165 L688.739603,176.874165 L688.739603,146.630355 C688.739603,142.432672 688.103078,139.473693 686.83001,137.753332 C685.556943,136.03297 683.578556,135.172802 680.894792,135.172802 C677.729326,135.172802 674.185433,137.271612 670.263008,141.469295 L670.263008,176.874165 L658.39257,176.874165 L658.39257,126.192557 Z M743.240395,163.248967 C743.240395,157.812624 745.614459,153.615004 750.362658,150.655981 C755.110856,147.696959 762.680335,145.632556 773.071321,144.462709 C773.071321,143.155234 772.899287,141.899389 772.555215,140.695136 C772.211143,139.490882 771.677838,138.424274 770.955286,137.495279 C770.232734,136.566283 769.303753,135.843742 768.168314,135.327633 C767.032875,134.811525 765.604996,134.553474 763.884634,134.553474 C761.338499,134.553474 758.878418,135.035169 756.504319,135.998571 C754.130219,136.961974 751.842172,138.131802 749.640109,139.508092 L745.304819,131.56006 C748.126212,129.770883 751.274427,128.222581 754.749558,126.915106 C758.224689,125.607631 761.992225,124.953903 766.05228,124.953903 C772.452026,124.953903 777.200153,126.829069 780.296805,130.579458 C783.393456,134.329847 784.941759,139.748906 784.941759,146.836797 L784.941759,176.874165 L775.238966,176.874165 L774.309975,171.300221 L774.000312,171.300221 C771.729434,173.227026 769.30376,174.844142 766.723217,176.151617 C764.142674,177.459092 761.338527,178.11282 758.31069,178.11282 C753.837749,178.11282 750.20784,176.753754 747.420853,174.035583 C744.633867,171.317411 743.240395,167.721908 743.240395,163.248967 Z M754.801169,162.319977 C754.801169,164.590854 755.4721,166.242377 756.813982,167.274594 C758.155865,168.306811 759.893404,168.822912 762.026653,168.822912 C764.091087,168.822912 765.983457,168.341218 767.703819,167.377815 C769.424181,166.414413 771.21333,165.038144 773.071321,163.248967 L773.071321,151.894636 C769.630597,152.307523 766.740433,152.85803 764.40074,153.546175 C762.061048,154.23432 760.185882,155.008471 758.775185,155.868652 C757.364488,156.728833 756.34949,157.709424 755.73016,158.810456 C755.110829,159.911488 754.801169,161.081316 754.801169,162.319977 Z M799.392726,104 L811.056722,104 L811.056722,149.520548 L811.366385,149.520548 L830.152643,126.192557 L843.158514,126.192557 L825.817353,146.836797 L844.913274,176.874165 L832.010625,176.874165 L819.004754,154.88805 L811.056722,163.971516 L811.056722,176.874165 L799.392726,176.874165 L799.392726,104 Z M847.597026,151.584972 C847.597026,147.456104 848.250753,143.740178 849.558228,140.437083 C850.865703,137.133988 852.603243,134.347043 854.770899,132.076166 C856.938555,129.805288 859.433042,128.050545 862.254436,126.811885 C865.075829,125.573224 867.965994,124.953903 870.925016,124.953903 C874.36574,124.953903 877.393532,125.538817 880.008482,126.708663 C882.623432,127.87851 884.808259,129.530032 886.563028,131.663281 C888.317797,133.79653 889.642456,136.342627 890.537044,139.30165 C891.431632,142.260672 891.878919,145.494904 891.878919,149.004442 C891.878919,151.344134 891.706886,153.202097 891.362813,154.578387 L859.1578,154.578387 C859.708316,159.188957 861.308228,162.732849 863.957585,165.21017 C866.606943,167.687491 869.996005,168.926133 874.124873,168.926133 C876.326937,168.926133 878.374137,168.599269 880.266535,167.945532 C882.158933,167.291794 884.034099,166.380016 885.89209,165.21017 L889.917717,172.642096 C887.50921,174.224829 884.825486,175.532285 881.866463,176.564502 C878.907441,177.596719 875.810836,178.11282 872.576555,178.11282 C869.067017,178.11282 865.798379,177.510702 862.770542,176.306449 C859.742705,175.102196 857.093387,173.364656 854.822509,171.093778 C852.551632,168.822901 850.779686,166.05316 849.506618,162.784472 C848.23355,159.515784 847.597026,155.782655 847.597026,151.584972 Z M881.5568,147.043239 C881.5568,142.983185 880.713835,139.817767 879.02788,137.546889 C877.341926,135.276012 874.744218,134.14059 871.23468,134.14059 C868.206843,134.14059 865.557525,135.224401 863.286648,137.392057 C861.01577,139.559713 859.605094,142.776742 859.054579,147.043239 L881.5568,147.043239 Z M903.233251,126.192557 L913.039265,126.192557 L913.865034,135.172802 L914.277919,135.172802 C916.067096,131.869707 918.234719,129.340813 920.780855,127.586044 C923.32699,125.831275 925.941901,124.953903 928.625666,124.953903 C931.034172,124.953903 932.960949,125.29797 934.406053,125.986115 L932.341629,136.308235 C931.447041,136.032977 930.621279,135.826537 929.86432,135.688908 C929.107361,135.551279 928.178379,135.482465 927.077348,135.482465 C925.081728,135.482465 922.982918,136.256616 920.780855,137.804942 C918.578791,139.353268 916.686422,142.054196 915.103689,145.907806 L915.103689,176.874165 L903.233251,176.874165 L903.233251,126.192557 Z M933.167398,170.061566 C933.167398,167.721874 933.907143,165.795098 935.386654,164.281179 C936.866165,162.767261 938.706925,162.010313 940.908988,162.010313 C943.111051,162.010313 944.934608,162.767261 946.379712,164.281179 C947.824816,165.795098 948.547357,167.721874 948.547357,170.061566 C948.547357,172.401259 947.824816,174.328035 946.379712,175.841954 C944.934608,177.355872 943.111051,178.11282 940.908988,178.11282 C938.706925,178.11282 936.866165,177.355872 935.386654,175.841954 C933.907143,174.328035 933.167398,172.401259 933.167398,170.061566 Z" id="daymaker."></path>
        </g>
    </g>
</svg>