<?xml version="1.0" encoding="UTF-8" standalone="no"?>
<svg width="450px" height="110px" viewBox="0 0 450 110" version="1.1" xmlns="http://www.w3.org/2000/svg" xmlns:xlink="http://www.w3.org/1999/xlink">
    <!-- Generator: Sketch 41.2 (35397) - http://www.bohemiancoding.com/sketch -->
    <title>leapcure</title>
    <desc>Created with Sketch.</desc>
    <defs></defs>
    <g id="Desktop" stroke="none" stroke-width="1" fill="none" fill-rule="evenodd">
        <g id="Desktop-HD" transform="translate(-495.000000, -95.000000)" fill="#FFFFFF">
            <g id="Group-2" transform="translate(495.000000, 95.000000)">
                <path d="M0.0481927711,83.6339025 L18.2463626,83.6339025 L18.2463626,0.755490483 L0.0481927711,0.755490483 L0.0481927711,83.6339025 Z M70.1001839,50.0878786 L46.9687752,50.0878786 C47.0418608,48.699261 47.4072854,47.3654605 48.0650505,46.0864738 C48.7228157,44.8074837 49.5998359,43.6929383 50.6961112,42.7428341 C51.7923865,41.79273 53.0713749,41.0436074 54.5330748,40.4954698 C55.9947763,39.9473322 57.6026456,39.6732633 59.356686,39.6732633 C62.9378509,39.6732633 65.6237253,40.6964547 67.4143094,42.7428341 C69.2048935,44.7892136 70.1001839,47.2375628 70.1001839,50.0878786 Z M86.6539408,56.9944129 C86.6539408,52.3169728 85.9779021,48.1511267 84.6258315,44.4968746 C83.2737609,40.8426259 81.3918194,37.7365114 78.9800138,35.1785346 C76.5682081,32.6205612 73.6813487,30.6655358 70.319439,29.3134618 C66.9575258,27.9613879 63.2667335,27.2853525 59.2470585,27.2853525 C55.0812124,27.2853525 51.2077069,27.9796613 47.6265404,29.3682756 C44.0453739,30.7568898 40.9392611,32.7119152 38.3082004,35.2333484 C35.6771397,37.7547816 33.5942167,40.8243524 32.0594313,44.4420608 C30.5246459,48.0597693 29.7572532,52.0977178 29.7572532,56.5559028 C29.7572532,61.160259 30.5429177,65.2530196 32.114245,68.8341861 C33.6855741,72.4153509 35.841581,75.430108 38.5822693,77.8784572 C41.3229575,80.3268048 44.5204277,82.1904728 48.1746781,83.4694612 C51.8289285,84.7484496 55.702434,85.387943 59.7951962,85.387943 C65.3496565,85.387943 70.2280816,84.3830234 74.4304713,82.3731859 C78.632861,80.3633485 82.0130443,77.4947609 84.5710177,73.7674249 L72.0734794,65.8742428 C70.831033,67.5551977 69.2231637,68.9255418 67.2498681,69.9852751 C65.2765726,71.0450068 62.864767,71.5748743 60.0144512,71.5748743 C58.4065786,71.5748743 56.853523,71.3190756 55.3552812,70.8074816 C53.8570394,70.2958859 52.5049655,69.583307 51.2990626,68.6697448 C50.0931598,67.7561809 49.1065121,66.6781775 48.3391194,65.4357327 C47.5717267,64.1932879 47.1149447,62.804672 46.9687752,61.2698866 L86.5443133,61.2698866 C86.6174005,60.6121214 86.6539408,59.9178143 86.6539408,59.1869635 L86.6539408,56.9944129 Z M129.408677,59.8447287 L129.408677,61.7083967 C129.408677,65.1433937 128.4403,67.8658101 126.503548,69.8756476 C124.566796,71.8854868 121.771294,72.8904047 118.117042,72.8904047 C117.240021,72.8904047 116.326459,72.7990473 115.376353,72.6163358 C114.426249,72.4336244 113.585771,72.123012 112.85492,71.6845018 C112.12407,71.2459917 111.521118,70.6613105 111.046066,69.9304614 C110.571014,69.1996106 110.333487,68.3225904 110.333487,67.2994007 C110.333487,65.6915297 110.845083,64.3942712 111.868273,63.4076234 C112.891464,62.4209756 114.188722,61.6718547 115.76005,61.160259 C117.331377,60.648665 119.12196,60.3015106 121.131799,60.1187975 C123.141638,59.9360844 125.133204,59.8447287 127.106499,59.8447287 L129.408677,59.8447287 Z M96.4107909,36.494065 L105.509876,46.2509151 C107.190831,44.7161297 109.21894,43.4005993 111.594204,42.304324 C113.969467,41.2080487 116.436087,40.6599111 118.994062,40.6599111 C121.77129,40.6599111 124.110012,41.2994061 126.010224,42.5783929 C127.910435,43.8573829 128.86054,45.8489486 128.86054,48.5530932 L128.86054,49.4301134 C124.913948,49.4301134 120.85773,49.6493685 116.691884,50.0878786 C112.526038,50.5263887 108.743888,51.403409 105.345435,52.7189393 C101.946981,54.0344697 99.1697493,55.8981376 97.0137423,58.3099433 C94.8577337,60.7217489 93.7797302,63.9009473 93.7797302,67.8475383 C93.7797302,71.0632803 94.4009534,73.7674249 95.6433982,75.9599755 C96.8858446,78.1525261 98.4754438,79.9065665 100.412196,81.2220969 C102.348949,82.5376272 104.486686,83.487733 106.825406,84.0724126 C109.164126,84.6570922 111.429762,84.9494329 113.622313,84.9494329 C116.911141,84.9494329 119.96244,84.3282096 122.776212,83.0857649 C125.589987,81.8433201 127.69118,80.0892796 129.079795,77.8236435 L129.408677,77.8236435 L129.408677,83.6339025 L145.852807,83.6339025 L145.852807,56.1173927 C145.852807,51.1476103 145.396026,46.8538665 144.482462,43.236158 C143.568899,39.6184496 142.125471,36.6219627 140.152175,34.2467006 C138.17888,31.8714386 135.602633,30.1173982 132.423434,28.9845792 C129.244236,27.8517603 125.352459,27.2853525 120.748102,27.2853525 C116.289916,27.2853525 111.923086,28.0527452 107.647613,29.5875306 C103.372139,31.1223161 99.6265329,33.4244942 96.4107909,36.494065 Z M219.961016,56.1173927 C219.961016,52.3169695 219.358065,48.6809909 218.152162,45.2094536 C216.946259,41.7379162 215.228759,38.6866156 212.999668,36.0555549 C210.770577,33.4244942 208.048159,31.3415711 204.832417,29.8067857 C201.616675,28.2720003 198.03551,27.5046076 194.088919,27.5046076 C190.069244,27.5046076 186.579434,28.3268141 183.61949,29.971227 C180.659547,31.6156399 178.339097,33.5341217 176.658142,35.7266723 L176.32926,35.7266723 L176.32926,29.039393 L159.227365,29.039393 L159.227365,109.94451 L177.20628,109.94451 L177.20628,77.6043884 L177.425535,77.6043884 C179.10649,79.9431085 181.44521,81.7885063 184.441697,83.1405786 C187.438184,84.4926509 190.617382,85.1686879 193.979292,85.1686879 C198.072051,85.1686879 201.726303,84.3647533 204.942045,82.7568823 C208.157787,81.1490113 210.880205,79.0112745 213.109296,76.3436718 C215.338387,73.6760675 217.037613,70.5882266 218.206976,67.0801456 C219.376338,63.5720647 219.961016,59.9178143 219.961016,56.1173927 Z M202.530239,56.1173927 C202.530239,57.8714332 202.25617,59.6072018 201.708033,61.3247003 C201.159895,63.0421989 200.355959,64.5587124 199.296227,65.8742428 C198.236492,67.1897731 196.902692,68.2495065 195.294822,69.0534411 C193.686953,69.8573775 191.823285,70.259344 189.703818,70.259344 C187.657435,70.259344 185.830311,69.8573775 184.222442,69.0534411 C182.614572,68.2495065 181.244228,67.1897731 180.111409,65.8742428 C178.978592,64.5587124 178.101572,63.060469 177.480349,61.3795141 C176.859125,59.6985592 176.548515,57.9810607 176.548515,56.2270202 C176.548515,54.4729798 176.859125,52.7554829 177.480349,51.0745264 C178.101572,49.3935698 178.978592,47.895328 180.111409,46.5797977 C181.244228,45.2642673 182.614572,44.2045357 184.222442,43.4005993 C185.830314,42.596663 187.657439,42.1946965 189.703818,42.1946965 C191.823285,42.1946965 193.686953,42.596663 195.294822,43.4005993 C196.902695,44.2045357 198.236495,45.2459972 199.296227,46.5249839 C200.355959,47.8039706 201.159895,49.2839423 201.708033,50.9648988 C202.25617,52.6458554 202.530239,54.3633522 202.530239,56.1173927 Z M268.854894,46.6894252 L279.26951,34.630397 C278.173234,33.5341217 276.875974,32.5292038 275.377732,31.6156399 C273.87949,30.7020761 272.235078,29.9346834 270.444493,29.3134618 C268.653909,28.6922403 266.790241,28.1989164 264.853489,27.8334902 C262.916738,27.4680673 260.961712,27.2853525 258.988417,27.2853525 C254.749487,27.2853525 250.766352,27.9613879 247.039016,29.3134618 C243.31168,30.6655358 240.077668,32.6022877 237.33698,35.1237209 C234.596291,37.645154 232.440284,40.6964547 230.868955,44.2776196 C229.297628,47.8587877 228.511964,51.8784627 228.511964,56.3366478 C228.511964,60.8679184 229.297628,64.924137 230.868955,68.5053035 C232.440284,72.0864683 234.596291,75.137769 237.33698,77.6592022 C240.077668,80.1806354 243.31168,82.0991171 247.039016,83.4146475 C250.76635,84.7301778 254.786027,85.387943 259.098044,85.387943 C263.117722,85.387943 266.918142,84.7667198 270.499307,83.524275 C274.080475,82.2818302 277.003875,80.5643317 279.26951,78.3717811 L269.293404,66.2031254 C268.197129,67.5186557 266.753701,68.5235753 264.963117,69.2178824 C263.172533,69.9121912 261.363679,70.259344 259.536554,70.259344 C257.563259,70.259344 255.790948,69.8939178 254.219619,69.1630687 C252.64829,68.4322196 251.296218,67.4273 250.163401,66.1483116 C249.030582,64.8693232 248.171833,63.3893516 247.587154,61.7083967 C247.002474,60.0274401 246.710133,58.2368577 246.710133,56.3366478 C246.710133,54.4364395 247.020744,52.6458554 247.641967,50.9648988 C248.263191,49.2839423 249.121939,47.8039706 250.218214,46.5249839 C251.31449,45.2459972 252.63002,44.2228058 254.164805,43.4554131 C255.699591,42.6880204 257.417088,42.304324 259.317299,42.304324 C261.144424,42.304324 262.935008,42.7062905 264.689048,43.5102269 C266.443089,44.3141632 267.831703,45.3738948 268.854894,46.6894252 Z M322.353128,83.6339025 L339.674278,83.6339025 L339.674278,29.039393 L321.695363,29.039393 L321.695363,58.5291983 C321.695363,61.6718547 320.873157,64.412543 319.228744,66.751263 C317.584331,69.0899831 315.190795,70.259344 312.048141,70.259344 C310.367188,70.259344 309.015114,69.9487315 307.991922,69.32751 C306.968732,68.7062867 306.146526,67.8475383 305.525303,66.751263 C304.90408,65.6549877 304.483841,64.412543 304.264586,63.023927 C304.045331,61.6353111 303.935704,60.1736113 303.935704,58.6388259 L303.935704,29.039393 L285.847161,29.039393 L285.847161,62.804672 C285.847161,65.5819038 286.194316,68.3043203 286.888623,70.9719229 C287.58293,73.6395272 288.715747,76.0147892 290.287076,78.0977123 C291.858405,80.1806354 293.904785,81.8798621 296.426218,83.1953924 C298.947651,84.5109228 302.035494,85.1686879 305.689744,85.1686879 C307.589956,85.1686879 309.39881,84.9128909 311.116307,84.4012952 C312.833804,83.8896995 314.405133,83.2319344 315.83029,82.4279997 C317.255448,81.624065 318.497895,80.6739592 319.557626,79.5776839 C320.617358,78.4814087 321.476108,77.3120478 322.133873,76.069603 L322.353128,76.069603 L322.353128,83.6339025 Z M389.116294,43.7294819 L389.883686,27.9431177 C389.445176,27.7969466 388.878769,27.687319 388.18446,27.6142351 C387.490151,27.5411512 386.777572,27.5046076 386.046723,27.5046076 C382.684813,27.5046076 379.72487,28.3816278 377.166893,30.1356683 C374.608918,31.8897088 372.635622,34.1553432 371.247006,36.9325751 L371.027751,36.9325751 L371.027751,29.039393 L353.706602,29.039393 L353.706602,83.6339025 L371.685517,83.6339025 L371.685517,55.5692551 C371.685517,54.4729798 371.904772,53.193993 372.343282,51.7322915 C372.781792,50.2705934 373.494371,48.9185194 374.481019,47.676073 C375.467666,46.4336265 376.783197,45.3738948 378.42761,44.4968746 C380.072023,43.6198544 382.100132,43.1813443 384.511938,43.1813443 C385.242787,43.1813443 385.991909,43.2178879 386.759302,43.2909718 C387.526695,43.3640557 388.312357,43.5102269 389.116294,43.7294819 Z M432.74805,50.0878786 L409.616642,50.0878786 C409.689727,48.699261 410.055152,47.3654605 410.712917,46.0864738 C411.370682,44.8074837 412.247702,43.6929383 413.343978,42.7428341 C414.440253,41.79273 415.719241,41.0436074 417.180941,40.4954698 C418.642643,39.9473322 420.250512,39.6732633 422.004552,39.6732633 C425.585717,39.6732633 428.271592,40.6964547 430.062176,42.7428341 C431.85276,44.7892136 432.74805,47.2375628 432.74805,50.0878786 Z M449.301807,56.9944129 C449.301807,52.3169728 448.625769,48.1511267 447.273698,44.4968746 C445.921627,40.8426259 444.039686,37.7365114 441.62788,35.1785346 C439.216075,32.6205612 436.329215,30.6655358 432.967305,29.3134618 C429.605392,27.9613879 425.9146,27.2853525 421.894925,27.2853525 C417.729079,27.2853525 413.855573,27.9796613 410.274407,29.3682756 C406.69324,30.7568898 403.587128,32.7119152 400.956067,35.2333484 C398.325006,37.7547816 396.242083,40.8243524 394.707298,44.4420608 C393.172512,48.0597693 392.40512,52.0977178 392.40512,56.5559028 C392.40512,61.160259 393.190784,65.2530196 394.762111,68.8341861 C396.333441,72.4153509 398.489447,75.430108 401.230136,77.8784572 C403.970824,80.3268048 407.168294,82.1904728 410.822544,83.4694612 C414.476795,84.7484496 418.3503,85.387943 422.443063,85.387943 C427.997523,85.387943 432.875948,84.3830234 437.078338,82.3731859 C441.280727,80.3633485 444.660911,77.4947609 447.218884,73.7674249 L434.721346,65.8742428 C433.478899,67.5551977 431.87103,68.9255418 429.897735,69.9852751 C427.924439,71.0450068 425.512633,71.5748743 422.662318,71.5748743 C421.054445,71.5748743 419.501389,71.3190756 418.003148,70.8074816 C416.504906,70.2958859 415.152832,69.583307 413.946929,68.6697448 C412.741026,67.7561809 411.754378,66.6781775 410.986986,65.4357327 C410.219593,64.1932879 409.762811,62.804672 409.616642,61.2698866 L449.19218,61.2698866 C449.265267,60.6121214 449.301807,59.9178143 449.301807,59.1869635 L449.301807,56.9944129 Z" id="leapcure"></path>
            </g>
        </g>
    </g>
</svg>